<?xml version="1.0" encoding="UTF-8"?>
<svg viewBox="0 0 1066.7 800" xmlns="http://www.w3.org/2000/svg">
 <defs>
  <linearGradient id="a" x1="-.002471" x2="1.0025" y1=".5" y2=".5">
   <stop stop-color="#fff" offset="0"/>
   <stop stop-color="#fff" stop-opacity="0" offset="1"/>
  </linearGradient>
 </defs>
 <g fill-rule="evenodd" stroke-width="3">
  <path d="m105.6 193.27c53.272-5.429 106.54-10.858 159.82-16.287 8.1434-5.0896 16.287-10.179 24.43-15.269 18.662-7.4648 37.324-16.966 55.986-24.43 16.626-10.179 29.938-22.145 46.825-25.448 19.363-3.7874 47.503-2.3752 68.201 7.1255 43.771 63.112 87.542 126.22 131.31 189.34 36.306 35.967 72.612 71.934 108.92 107.9 15.608 21.037 13.749 54.429 4.0717 69.219-8.306 12.694-38.681 21.037-58.022 13.233 1.3572 17.305-2.3751 37.663-11.197 48.86-11.876 7.8041-32.913 14.59-47.843 11.197 4.0717 14.59-2.6998 34.923-12.215 43.771-9.8254 9.1359-23.412 14.93-45.807 10.179-1.3572 7.4648-1.2512 17.05-6.2311 21.675-9.2711 8.609-23.628 12.256-36.522 18.025-183.23-96.024-249.39-97.382-341.01-115.03-13.233-100.78-27.484-243.28-40.717-344.06z" fill="#ffcaa1" fill-opacity=".999" stroke="#000"/>
  <path d="m105.6 193.27c53.272-5.429 106.54-10.858 159.82-16.287 8.1434-5.0896 16.287-10.179 24.43-15.269 18.662-7.4648 37.324-16.966 55.986-24.43 16.626-10.179 29.938-22.145 46.825-25.448 19.363-3.7874 47.503-2.3752 68.201 7.1255 43.771 63.112 87.542 126.22 131.31 189.34 36.306 35.967 72.612 71.934 108.92 107.9 15.608 21.037 13.749 54.429 4.0717 69.219-8.306 12.694-38.681 21.037-58.022 13.233 1.3572 17.305-2.3751 37.663-11.197 48.86-11.876 7.8041-32.913 14.59-47.843 11.197 4.0717 14.59-2.6998 34.923-12.215 43.771-9.8254 9.1359-23.412 14.93-45.807 10.179-1.3572 7.4648-1.2512 17.05-6.2311 21.675-9.2711 8.609-23.628 12.256-36.522 18.025-183.23-96.024-249.39-97.382-341.01-115.03-13.233-100.78-27.484-243.28-40.717-344.06z" fill="url(#a)"/>
 </g>
 <g stroke="#000">
  <g fill-rule="evenodd">
   <g stroke-width="3">
    <path d="m266.32 514.63c-7.4983 8.2124-15.59 30.479-18.714 43.187-0.47401 1.9277 5.4333-1.4214 7.1978 0 6.153 8.4156 9.0527 13.084 18.714 20.874 4.7926 3.8638 9.9655 7.3635 15.115 10.797 7.0864 4.7242 14.091 9.6744 21.594 13.676 10.492 5.5957 19.81 14.505 32.39 15.115 18.827 16.368 29.78 22.929 51.824 28.791 4.5878 11.652 11.382 24.001 23.033 27.352 10.616 3.0527 28.439-0.98047 40.308-4.3187 10.813-3.0414 24.613-15.222 30.231-20.874 6.5245-6.5635 4.186-17.841 0-27.352-2.8222-6.4118-14.21-10.863-22.313-14.396 4.4828-5.5847 10.616-9.5868 10.797-15.115 0.40747-12.466-2.895-22.293-12.236-32.39-10.071-10.887-29.468-15.627-41.747-7.1978 0.76251-8.6692 2.3692-21.134-5.7583-30.231-12.351-13.825-26.43-19.422-44.627-18.714-29.594 1.1513-35.932 15.513-51.105 26.632-10.663 7.8144-28.864 16.353-36.709 15.115-2.2322-5.72-1.467-14.11-6.4781-20.874-3.1204-4.2118-6.0587-7.1429-11.516-10.077z" fill="#ffd8b4"/>
    <path d="m39.435 156.62c74.987 6.7862 150.26 11.307 224.96 20.359 34.809 4.2174 30.441 173.5 21.376 257.54-7.2225 66.959-41.056 134.06-70.237 195.44-10.179 21.411-32.913 53.95-47.843 53.95-15.269 0-85.506-19.68-128.26-29.52v-497.77z" fill="#bfbfbf"/>
   </g>
   <path d="m654.26 129.14l-12.215 4.0717-5.0897 14.251 78.38 280.95 12.215 8.1434 7.1255 2.0359 8.1434-4.0717 7.1255-39.699-10.179-94.667-27.484-107.9-37.663-59.04-20.359-4.0717v-3e-5z" fill="#404f60" stroke-opacity="0"/>
  </g>
  <g stroke-width="3">
   <path d="m668.22 137.45c-12.215 3.0538-35.177 13.653-47.442 12.04-13.405-1.7625-38.751-9.3055-69.326-14.444-31.146-5.2345-47.217-16.093-75.322-17.235-32.549-1.3232-41.735 19.464-58.022 35.751-30.198 20.698-75.404 40.966-84.488 55.986-9.8479 16.283-25.109 54.29-25.448 69.219-8.4827 16.287-21.442 31.452-22.569 49.58-1.6472 26.499 32.134 29.732 46.999 23.71 10.885-4.4088 17.644-12.894 26.466-19.341 25.058-9.4795 42.198-39.113 60.058-65.147 18.57-5.9841 29.222-12.688 42.753-24.43 7.3413 7.5371 18.282 5.7171 28.502 1.0179-1.3796 17.397 83.615 54.228 103.83 65.147 35.504 37.365 70.288 69.692 107.95 106.34 1.3572 4.0717 5.5936 11.742 6.9508 15.814 5.429-3.0538 14.347-4.7691 18.446-9.1614 5.4012-5.787 8.1434-14.251 12.215-21.376 20.359-5.4289 40.717-10.858 61.076-16.287-27.145-90.935-54.29-181.87-81.434-272.8-17.305 9.5007-33.89 16.122-51.194 25.623z" fill="#ffd4aa"/>
   <path d="m632.89 147.46c-1.0491-6.0252 5.0996-17.809 16.287-22.394 107.13-42.733 205.62-62.433 308.43-93.649l13.233 356.27c-112.95 19.042-160.76 33.046-234.12 54.968-4.2463-0.092316-15.691-7.0226-21.376-13.233 6.4469 2.0359 16.533 7.0737 19.341 6.1076 6.0353-2.0771 7.0131-22.337 6.1075-33.592-3.8448-47.785-7.3788-97.476-20.359-143.53-11.79-41.83-22.885-98.831-53.95-120.12-4.4957-3.0802-12.187-5.4135-17.305-3.8971-4.0433 1.198-8.2258 6.1076-10.179 12.04l-6.1076 1.0179z" fill="#bfbfbf" fill-rule="evenodd"/>
  </g>
 </g>
</svg>
